<?xml version="1.0" encoding="utf-8"?>
<!-- Generator: Adobe Illustrator 19.2.1, SVG Export Plug-In . SVG Version: 6.00 Build 0)  -->
<svg version="1.1" id="Layer_1" xmlns="http://www.w3.org/2000/svg" xmlns:xlink="http://www.w3.org/1999/xlink" x="0px" y="0px"
	 viewBox="0 0 1080 704" style="enable-background:new 0 0 1080 704;" xml:space="preserve">
<style type="text/css">
	.st0{opacity:0.2;fill:#6C63FF;}
	.st1{fill:#3F3D56;}
	.st2{fill:#6C63FF;}
	.st3{fill:#EEEEEE;}
	.st4{fill:none;stroke:#FFFFFF;stroke-width:1.1562;stroke-miterlimit:10;}
	.st5{fill:#FF5252;}
	.st6{fill:#FFFF00;}
	.st7{fill:#69F0AE;}
	.st8{fill:#E6E6E6;}
	.st9{fill:#3D2E28;}
	.st10{fill:#FFB9B9;}
	.st11{fill:#FFFFFF;}
	.st12{opacity:0.15;enable-background:new    ;}
	.st13{opacity:0.3;fill:#3A3768;enable-background:new    ;}
</style>
<g>
	<path class="st0" d="M624.7,122.3c-67.1-2.3-130.9-23.2-191.9-46.1S311.4,27.9,245.9,15.8C203.8,8,155.7,6.9,121.8,28.7
		c-32.6,21-43.2,57.3-48.9,90.9c-4.3,25.3-6.8,51.9,4.9,75.6c8.1,16.5,22.5,30.3,32.5,46.1c34.7,54.8,10.2,122.4-27.4,176
		c-17.6,25.1-38.1,49.1-51.7,75.8s-19.9,57.4-8,84.6c11.8,27,39.9,47.3,70.4,61.6c61.8,29,134.7,37.3,205.8,42
		c157.3,10.4,315.5,5.9,473.2,1.4c58.4-1.7,117-3.4,174.4-12.1c31.9-4.8,64.8-12.5,88-31.1c29.4-23.6,36.7-63.5,17-93.1
		c-33-49.6-124.3-61.9-147.4-115.1c-12.7-29.3,0.3-61.9,18.8-89.1c39.6-58.3,106-109.4,109.5-176c2.4-45.7-29.5-91.6-78.9-113.2
		c-51.7-22.7-123.5-19.8-161.6,17.7C753,109.4,683.9,124.3,624.7,122.3z"/>
	<path class="st1" d="M902.8,223.2H602V217H465.6v6.2h-302c-11.2,0-20.3,9.1-20.3,20.3l0,0v411.9c0,11.2,9.1,20.3,20.3,20.3h739.2
		c11.2,0,20.3-9.1,20.3-20.3V243.6C923.2,232.3,914,223.2,902.8,223.2L902.8,223.2z"/>
	<rect x="170.5" y="259.2" class="st2" width="725.4" height="409.2"/>
	<g>
		<rect x="219.8" y="416.3" class="st3" width="207.4" height="8.6"/>
		<rect x="219.8" y="433.5" class="st3" width="207.4" height="8.6"/>
		<rect x="219.8" y="450.8" class="st3" width="207.4" height="8.6"/>
		<rect x="291.3" y="468.1" class="st3" width="135.9" height="8.6"/>
		<rect x="219.8" y="485.4" class="st3" width="109.2" height="8.6"/>
		<rect x="278.7" y="502.7" class="st3" width="84" height="8.6"/>
	</g>
	<g>
		<rect x="182" y="285.4" class="st4" width="556.5" height="364.3"/>
		<rect x="182" y="268.1" class="st3" width="556.5" height="26.8"/>
		<circle class="st5" cx="203.1" cy="281.1" r="6.5"/>
		<circle class="st6" cx="221" cy="281.1" r="6.5"/>
		<circle class="st7" cx="238.9" cy="281.1" r="6.5"/>
	</g>
	<circle class="st2" cx="532.6" cy="240.6" r="7.4"/>
	<path class="st8" d="M657.9,606.4l-6.6,10.2c0,0-4.4,24.5-3.7,48c0.8,23.5,169.8,6.4,169.8,6.4s4-41.2-5.2-59.5
		s-74.6-10.8-74.6-10.8L657.9,606.4z"/>
	<path class="st1" d="M956.9,661.4h-84.2v-2.7c0-0.3-0.5-0.5-1-0.5l0,0h-24.3c-0.6,0-1,0.2-1,0.5l0,0v2.7h-15.2v-2.7
		c0-0.3-0.5-0.5-1-0.5l0,0H806c-0.6,0-1,0.2-1,0.5l0,0v2.7h-15.2v-2.7c0-0.3-0.5-0.5-1-0.5l0,0h-24.3c-0.6,0-1,0.2-1,0.5l0,0v2.7
		h-15.2v-2.7c0-0.3-0.5-0.5-1-0.5l0,0H723c-0.6,0-1,0.2-1,0.5l0,0v2.7h-15.2v-2.7c0-0.3-0.5-0.5-1-0.5l0,0h-24.3c-0.6,0-1,0.2-1,0.5
		l0,0v2.7h-15.2v-2.7c0-0.3-0.5-0.5-1-0.5l0,0H640c-0.6,0-1,0.2-1,0.5l0,0v2.7h-15.2v-2.7c0-0.3-0.5-0.5-1-0.5l0,0h-190
		c-0.6,0-1,0.2-1,0.5l0,0v2.7h-15.2v-2.7c0-0.3-0.5-0.5-1-0.5l0,0h-24.3c-0.6,0-1,0.2-1,0.5l0,0v2.7h-15.2v-2.7c0-0.3-0.5-0.5-1-0.5
		l0,0h-24.3c-0.6,0-1,0.2-1,0.5l0,0v2.7h-15.2v-2.7c0-0.3-0.5-0.5-1-0.5l0,0h-24.3c-0.6,0-1,0.2-1,0.5l0,0v2.7h-15.2v-2.7
		c0-0.3-0.5-0.5-1-0.5l0,0h-24.3c-0.6,0-1,0.2-1,0.5l0,0v2.7h-15.2v-2.7c0-0.3-0.5-0.5-1-0.5l0,0h-24.3c-0.6,0-1,0.2-1,0.5l0,0v2.7
		h-15.2v-2.7c0-0.3-0.5-0.5-1-0.5l0,0H184c-0.6,0-1,0.2-1,0.5l0,0v2.7h-59.9c-6,0-10.9,2.6-10.9,5.8v20.2c0,3.2,4.9,5.8,10.9,5.8
		h833.8c6,0,10.9-2.6,10.9-5.8v-20.2C967.8,664,962.9,661.4,956.9,661.4z"/>
	<g>
		<rect x="588.4" y="305.6" class="st2" width="293.7" height="308.7"/>
		<path class="st9" d="M715.1,420.3l11.5,114.1h95L817,360.9c0-37.3-25.8-70-63.1-70s-61.6,31.1-61.6,68.5l-6.1,175h15.5
			L715.1,420.3z"/>
		<path class="st10" d="M605.4,326.6L595,217.9c0,0-20.8-59,10.4-54.3c31.2,4.6,12.7,49.7,12.7,49.7l17.3,113.3H605.4z"/>
		<circle class="st10" cx="756.8" cy="365.9" r="41.6"/>
		<path class="st10" d="M726.8,384.4c0,0-2.3,47.4-13.9,50.9S669,476.9,684,488.5c15,11.6,101.7,3.5,101.7,3.5l-8.1-60.1
			c0,0-18.5-12.7-3.5-34.7L726.8,384.4z"/>
		<path class="st1" d="M813.5,616.7H650.1c0.6-10.5,2.1-25.2,4-41.5c0.6-4.9,1.2-10,1.8-15.1c5.6-45.1,13.1-94.7,13.1-94.7l2-4.5
			l20-46.3l0.2,0.1l26.4,10.3l0.9,4.4l7.2,33.7l46.3-37.4l42.7-6.7l2.9-0.5l5.2,49.1c0,0-0.2,11-0.5,26.6c-0.3,18-0.6,42.1-0.6,62.8
			c0,9.9,0.1,19,0.3,26.2c0.2,6.1,0.4,10.9,0.7,13.8C823.5,603.7,819.4,610.5,813.5,616.7z"/>
		<polygon class="st1" points="692.1,420.2 690.9,413.3 658.5,374 640,308.1 594.9,325.4 627.3,405.2 673.6,464.2 		"/>
		<path class="st9" d="M702.1,370.9c0,0,14.3-19.7,26.8-23.3s14.3-21.5,14.3-21.5s32.2,35.8,51.9,37.6s1.8-42.9,1.8-42.9l-35.8-8.9
			l-34,3.6l-26.8,17.9L702.1,370.9z"/>
		<g>
			<rect x="606.6" y="538.1" class="st11" width="57.6" height="57.6"/>
			<path class="st2" d="M652.4,565c0,6.6-3.1,10.7-7.9,10.7c-2.5,0-4.4-1.3-4.7-3.3h-0.4c-0.8,2-2.9,3.3-5.1,3.2
				c-4.3,0-7.2-3.5-7.2-8.6c0-5,2.9-8.4,7.2-8.4c2-0.1,4,1.1,4.9,2.9h0.4V559h3.5v11.5c-0.1,1.1,0.7,2.1,1.8,2.3c0.1,0,0.3,0,0.4,0
				c2.5,0,4-3,4-7.6c0-7.4-5.5-12.3-13.7-12.3s-13.8,5.9-13.8,14.2c0,8.5,5.7,14,14.6,14c1.6,0,3.2-0.1,4.8-0.4
				c0.8-0.1,1.5,0.4,1.6,1.2c0.1,0.7-0.3,1.4-1,1.6c-1.8,0.4-3.7,0.6-5.6,0.6c-10.8,0-17.7-6.6-17.7-17c0-10.1,7-17,17.3-17
				C645.6,549.9,652.4,556.1,652.4,565z M630.9,567.1c0,3.3,1.5,5.3,4,5.3c2.6,0,4.3-2,4.3-5.3s-1.7-5.2-4.3-5.2
				C632.4,561.8,630.9,563.8,630.9,567.1L630.9,567.1z"/>
		</g>
		<path class="st10" d="M817.3,577.3l-110.6,4.4c0,0-61,14-52.8-16.5s50.8-7,50.8-7l114.5-4.3L817.3,577.3z"/>
		<path class="st1" d="M804.8,426.6l10.4-8.1c0,0,17.3-9.2,20.8,23.1s28.9,139.9,3.5,141.1c-25.4,1.2-90.2,2.3-90.2,2.3l6.9-35.8
			l53.2-3.5L804.8,426.6z"/>
		<polygon class="st12" points="808.3,476.3 804.8,542.2 753.9,552.6 800.2,534.1 		"/>
		<g>
			<rect x="557.9" y="126.2" class="st11" width="57.6" height="57.6"/>
			<path class="st2" d="M602,141.1l-2,2c5,5,5,13.1,0,18.1l2,2C608.1,157.2,608.1,147.3,602,141.1L602,141.1z M592.4,148.7v-9.2
				h-2.8l-8.5,7.1h-11.3L567,148v9.9l2.8,1.4l7.1,11.3h4.3l-2.7-11.3h2.7l8.5,5.7h2.8v-9.2c2-0.4,3.2-2.4,2.7-4.3
				C594.9,150.1,593.8,149,592.4,148.7L592.4,148.7z"/>
		</g>
	</g>
	<g>
		<rect x="460.2" y="468.6" class="st13" width="57.6" height="57.6"/>
		<rect x="464.7" y="464.6" class="st11" width="57.6" height="57.6"/>
		<path class="st2" d="M504.4,486.5l-7.7,11.8c0.6,0.8,1,1.7,1,2.7c-0.1,2.4-2.1,4.2-4.4,4.1c-2.2-0.1-4-1.9-4.1-4.1
			c0-0.3,0-0.5,0.1-0.8l-5.1-3c-1.4,1.3-3.4,1.6-5,0.6l-5.4,5.1v5.1c0,2.1,1.7,3.8,3.8,3.8h32.1c2.1,0,3.8-1.7,3.8-3.8v-18.8
			l-5.2-3.4c-0.7,0.6-1.7,0.9-2.6,0.9C505.2,486.7,504.8,486.6,504.4,486.5L504.4,486.5z"/>
		<path class="st2" d="M481.2,489.9c2.3,0,4.3,1.9,4.3,4.2l0,0c0,0.2,0,0.4,0,0.6l5.3,3c0.8-0.6,1.7-1,2.7-1c0.3,0,0.6,0,0.9,0.1
			l7.8-12c-1.4-1.9-0.9-4.6,1-5.9c1.9-1.4,4.6-0.9,5.9,1c0.5,0.7,0.8,1.6,0.8,2.5c0,0.3,0,0.7-0.1,1l3.7,2.4v-7.1
			c0-2.1-1.7-3.8-3.8-3.8h-32.2c-2.1,0-3.8,1.7-3.8,3.8V499l3.5-3.4c-0.2-0.5-0.3-1-0.3-1.5C476.9,491.8,478.8,489.9,481.2,489.9z"
			/>
	</g>
	<g>
		<rect x="308.7" y="558.1" class="st13" width="57.6" height="57.6"/>
		<rect x="313.2" y="554.1" class="st11" width="57.6" height="57.6"/>
		<path class="st2" d="M359.3,564.5l-35.4,19.2c-0.4,0.2-0.5,0.6-0.3,1c0.1,0.1,0.2,0.3,0.3,0.3l6,2.3c0.3,0.1,0.6,0.4,0.8,0.7
			l4.7,9.7c0.1,0.4,0.9,0.5,0.9,0.1l-0.7-8c0-0.6,0.3-1.2,0.6-1.6l18.4-18c0.1-0.1,0.3-0.1,0.4-0.1c0.2,0.1,0.4,0.3,0.3,0.5
			c0,0.1,0,0.1-0.1,0.2l-15.8,19.4c-0.3,0.5-0.5,1-0.6,1.6l-0.9,6.9c0.1,0.6,0.5,0.8,0.9,0.3l3.4-4c0.2-0.3,0.7-0.4,1-0.2l8.8,6.4
			c0.3,0.2,0.8,0.1,1-0.2c0-0.1,0.1-0.1,0.1-0.2l7.2-35.4c0.1-0.4-0.2-0.8-0.6-0.9C359.6,564.4,359.5,564.5,359.3,564.5L359.3,564.5
			z"/>
	</g>
	<g>
		<rect x="219.8" y="332.1" class="st13" width="57.6" height="57.6"/>
		<rect x="224.3" y="328.2" class="st11" width="57.6" height="57.6"/>
		<path class="st2" d="M253.6,347.6V340h-18.9v34h36.9v-26.5L253.6,347.6L253.6,347.6z M242.2,370.3h-3.8v-3.8h3.8V370.3z
			 M242.2,362.7h-3.8v-3.8h3.8V362.7z M242.2,355.1h-3.8v-3.8h3.8V355.1z M242.2,347.6h-3.8v-3.8h3.8V347.6z M249.8,370.3H246v-3.8
			h3.8V370.3z M249.8,362.7H246v-3.8h3.8V362.7z M249.8,355.1H246v-3.8h3.8V355.1z M249.8,347.6H246v-3.8h3.8V347.6z M267.8,370.3
			h-14.2v-3.8h3.8v-3.8h-3.8v-3.8h3.8v-3.8h-3.8v-3.8h14.2V370.3z M264.5,355.1h-3.8v3.8h3.8V355.1z M264.5,362.7h-3.8v3.8h3.8
			V362.7z"/>
	</g>
	<g>
		<rect x="298" y="332.1" class="st13" width="57.6" height="57.6"/>
		<rect x="302.5" y="328.2" class="st11" width="57.6" height="57.6"/>
		<g>
			<rect x="315.7" y="364.1" class="st2" width="5.7" height="9.9"/>
			<rect x="324.3" y="340.1" class="st2" width="5.5" height="33.9"/>
			<rect x="332.8" y="358.4" class="st2" width="5.6" height="15.5"/>
			<rect x="341.4" y="349.9" class="st2" width="5.6" height="24"/>
		</g>
	</g>
</g>
</svg>
